<svg width="24" height="42" viewBox="0 0 24 42" fill="none" xmlns="http://www.w3.org/2000/svg">
<path d="M23.1117 19.3612L5.31122 0.67097C4.89951 0.23834 4.34993 0 3.76391 0C3.1779 0 2.62831 0.23834 2.21661 0.67097L0.905727 2.04706C0.0527256 2.94373 0.0527256 4.40109 0.905727 5.2964L15.8532 20.9913L0.889141 36.7036C0.477437 37.1362 0.250122 37.713 0.250122 38.3279C0.250122 38.9436 0.477437 39.5203 0.889141 39.9533L2.20002 41.329C2.61205 41.7617 3.16132 42 3.74733 42C4.33334 42 4.88293 41.7617 5.29463 41.329L23.1117 22.6218C23.5244 22.1878 23.7511 21.6083 23.7498 20.9923C23.7511 20.3739 23.5244 19.7948 23.1117 19.3612Z" fill="#BD8D99"/>
</svg>
